<svg xmlns="http://www.w3.org/2000/svg" xmlns:xlink="http://www.w3.org/1999/xlink" width="93" height="94" viewBox="0 0 93 94">
  <defs>
    <filter id="Rectangle_1008" x="0" y="0" width="93" height="94" filterUnits="userSpaceOnUse">
      <feOffset dx="6" dy="8" input="SourceAlpha"/>
      <feGaussianBlur stdDeviation="5.5" result="blur"/>
      <feFlood flood-color="#cac7ff" flood-opacity="0.161"/>
      <feComposite operator="in" in2="blur"/>
      <feComposite in="SourceGraphic"/>
    </filter>
  </defs>
  <g id="Group_7965" data-name="Group 7965" transform="translate(10.886 8.5)">
    <g transform="matrix(1, 0, 0, 1, -10.89, -8.5)" filter="url(#Rectangle_1008)">
      <rect id="Rectangle_1008-2" data-name="Rectangle 1008" width="60" height="61" rx="30" transform="translate(10.5 8.5)" fill="#1b998b"/>
    </g>
    <g id="goal" transform="translate(14.976 11.737)">
      <path id="Path_7844" data-name="Path 7844" d="M39.36,455.413H33.023v-2.235A1.177,1.177,0,0,1,34.2,452h3.982a1.177,1.177,0,0,1,1.178,1.177Zm0,0" transform="translate(-30.877 -422.616)" fill="#fff"/>
      <path id="Path_7845" data-name="Path 7845" d="M136.833,413.371H130.5v-5.158a1.177,1.177,0,0,1,1.178-1.177h3.982a1.177,1.177,0,0,1,1.178,1.177Zm0,0" transform="translate(-122.013 -380.574)" fill="#fff"/>
      <path id="Path_7846" data-name="Path 7846" d="M234.309,368.207h-6.337v-8.3a1.178,1.178,0,0,1,1.178-1.178h3.982a1.178,1.178,0,0,1,1.178,1.178Zm0,0" transform="translate(-213.152 -335.41)" fill="#fff"/>
      <path id="Path_7847" data-name="Path 7847" d="M331.786,299.7h-6.337V286.638a1.177,1.177,0,0,1,1.177-1.178h3.982a1.178,1.178,0,0,1,1.178,1.178Zm0,0" transform="translate(-304.292 -266.903)" fill="#fff"/>
      <path id="Path_7848" data-name="Path 7848" d="M351.906,22.889h6.374a.214.214,0,0,0,.141-.375l-1.656-1.458a.214.214,0,0,1,0-.321l1.656-1.458a.214.214,0,0,0-.141-.375h-6.374Zm0,0" transform="translate(-329.029 -17.674)" fill="#fff"/>
      <path id="Path_7849" data-name="Path 7849" d="M226.289,108.93l-6.9,3.749c-.616.334-.784.923-1,1.68l-1.373,4.855,3.365-1.379,1.306-3.948,3.475-2.111a2.543,2.543,0,0,0,1.132-2.847Zm0,0" transform="translate(-202.904 -101.849)" fill="#fff"/>
      <path id="Path_7850" data-name="Path 7850" d="M226.289,108.93l-.8.432a2.542,2.542,0,0,1-1.175,1.685l-3.166,1.923a.982.982,0,0,0-.422.531l-.452,1.367A5.124,5.124,0,0,1,217.355,118l-.343,1.214,3.365-1.379,1.306-3.948,3.475-2.111a2.543,2.543,0,0,0,1.132-2.847Zm0,0" transform="translate(-202.904 -101.848)" fill="#fff"/>
      <path id="Path_7851" data-name="Path 7851" d="M220.377,245.926l1.989,2.35c.329.436.616.743.557,1.223l-.465,3.759h-1.213l-.317-3.231a.54.54,0,0,0-.323-.443l-3.591-2.278Zm0,0" transform="translate(-202.904 -229.939)" fill="#fff"/>
      <path id="Path_7852" data-name="Path 7852" d="M180.043,247.3l-.194,3.563a1.566,1.566,0,0,1-.087.715l-2.29,4.817h1.287l3.443-4.573a1.861,1.861,0,0,0,.292-.845l.913-5.055Zm0,0" transform="translate(-165.936 -229.939)" fill="#fff"/>
      <path id="Path_7853" data-name="Path 7853" d="M230.045,112.507l.565,1.1a1.054,1.054,0,0,1-.458,1.419l-.437.223a1.054,1.054,0,0,1-1.418-.458l-.565-1.1a1.054,1.054,0,0,1,.458-1.419l.437-.223A1.054,1.054,0,0,1,230.045,112.507Zm0,0" transform="translate(-212.82 -104.656)" fill="#fff"/>
      <path id="Path_7854" data-name="Path 7854" d="M29.715,4.474,28.292,3.222,29.715,1.97A.7.7,0,0,0,29.251.741H23.365V.488a.488.488,0,0,0-.976,0V7.067L18.383,9.242a1.543,1.543,0,0,0-.158-.512l-.565-1.1a1.543,1.543,0,0,0-2.075-.669l-.437.223a1.541,1.541,0,0,0-.669,2.075l.565,1.1a1.532,1.532,0,0,0,.556.6,4.273,4.273,0,0,0-.588,1.415l-.105.372a.488.488,0,0,0,.337.6.48.48,0,0,0,.133.019.488.488,0,0,0,.469-.355l.105-.372c.214-.754.345-1.158.763-1.385l.749-.407.092-.047c.031-.016.059-.034.089-.051l5.341-2.9A2.065,2.065,0,0,1,22,9.512l-3.473,2.11-.012.007-1.081.657a.488.488,0,0,0,.466.856l-.82,2.479-.6.246-1.63.668.47-1.661a.488.488,0,1,0-.939-.266l-.742,2.625a.468.468,0,0,0-.018.106l-.194,3.568a1.633,1.633,0,0,1-.04.526l-2.157,4.539H9.661A1.667,1.667,0,0,0,8,27.638v1.408a1.652,1.652,0,0,0-.69-.15H3.324a1.667,1.667,0,0,0-1.665,1.665v1.747H.488a.488.488,0,1,0,0,.976H29.25a.488.488,0,1,0,0-.976H27.981V19.735a1.667,1.667,0,0,0-1.665-1.665H23.365V9.559a3.042,3.042,0,0,0,.49-2.607.488.488,0,0,0-.49-.358V5.7H29.25a.7.7,0,0,0,.464-1.229Zm-14.4,3.906a.562.562,0,0,1,.281-.33l.437-.223a.566.566,0,0,1,.762.246l.565,1.1a.567.567,0,0,1-.188.727l-.159.086-.335.172a.566.566,0,0,1-.762-.246l-.565-1.1a.562.562,0,0,1-.035-.432Zm-.98,17.743a1.656,1.656,0,0,0-.536-.143l.536-.711Zm2.316-3.931A1.838,1.838,0,0,0,17,21.318c.013-.063.254-1.378.254-1.378s.228.142.252.152a.052.052,0,0,1,.03.043l.265,2.7H16.166ZM19.533,19.5l-.412,3.331h-.34l-.275-2.791a1.028,1.028,0,0,0-.575-.825l-.491-.311.327-1.811s1.377,1.636,1.409,1.677c.285.37.382.519.356.73Zm-5.269,2.361a2.645,2.645,0,0,0,.137-.906l.177-3.255,2.256-.925-.41,2.272c0,.006,0,.012,0,.019l-.339,1.878a1.858,1.858,0,0,1-.2.65l-3.3,4.378h-.272Zm-11.629,8.7a.69.69,0,0,1,.69-.689H7.306a.691.691,0,0,1,.69.689v1.747H2.635Zm6.337,0V27.638a.691.691,0,0,1,.69-.69h3.982a.69.69,0,0,1,.69.69v4.67H8.971V30.562ZM27.006,19.735V32.309H21.645V29.384a.488.488,0,0,0-.976,0v2.925H15.308V24.5a.69.69,0,0,1,.69-.689h3.982a.69.69,0,0,1,.69.689v2.445a.488.488,0,1,0,.976,0V19.735a.691.691,0,0,1,.69-.69h3.981a.691.691,0,0,1,.69.69ZM22.335,18.07a1.667,1.667,0,0,0-1.665,1.665v3.248a1.651,1.651,0,0,0-.566-.145l.4-3.218a1.884,1.884,0,0,0-.551-1.445c-.033-.043-1.929-2.294-1.929-2.294l1.163-3.517,3.2-1.947V18.07Zm1.03-13.342V1.717h5.161L27.414,2.7a.7.7,0,0,0,0,1.054l1.111.979H23.365Zm0,0" fill="none"/>
    </g>
  </g>
</svg>
