<svg id="Group_5907" data-name="Group 5907" xmlns="http://www.w3.org/2000/svg" width="60" height="61" viewBox="0 0 60 61">
  <rect id="Rectangle_1008" data-name="Rectangle 1008" width="60" height="61" rx="30" fill="#ff4b65"/>
  <g id="Group_7958" data-name="Group 7958" transform="translate(-283.846 -2497.234)">
    <path id="Path_7860" data-name="Path 7860" d="M93.284,12.505a6.05,6.05,0,0,0,4.421-1.832,6.05,6.05,0,0,0,1.832-4.421,6.051,6.051,0,0,0-1.832-4.421,6.251,6.251,0,0,0-8.842,0,6.05,6.05,0,0,0-1.832,4.421,6.05,6.05,0,0,0,1.832,4.421A6.051,6.051,0,0,0,93.284,12.505Zm0,0" transform="translate(220.38 2515)" fill="#fff"/>
    <path id="Path_7861" data-name="Path 7861" d="M21.606,254.738a15.444,15.444,0,0,0-.21-1.64,12.924,12.924,0,0,0-.4-1.649,8.145,8.145,0,0,0-.678-1.538,5.8,5.8,0,0,0-1.022-1.332,4.507,4.507,0,0,0-1.469-.923,5.075,5.075,0,0,0-1.875-.339,1.9,1.9,0,0,0-1.016.431c-.3.2-.661.428-1.059.682a6.065,6.065,0,0,1-1.37.6,5.319,5.319,0,0,1-3.351,0,6.051,6.051,0,0,1-1.369-.6c-.394-.252-.75-.481-1.06-.683a1.9,1.9,0,0,0-1.016-.431,5.069,5.069,0,0,0-1.875.34,4.5,4.5,0,0,0-1.469.923,5.806,5.806,0,0,0-1.022,1.332,8.163,8.163,0,0,0-.678,1.538,12.956,12.956,0,0,0-.4,1.649,15.391,15.391,0,0,0-.21,1.641c-.034.5-.052,1.012-.052,1.533a4.311,4.311,0,0,0,1.28,3.261,4.609,4.609,0,0,0,3.3,1.2h12.5a4.608,4.608,0,0,0,3.3-1.2,4.309,4.309,0,0,0,1.28-3.261c0-.523-.018-1.039-.052-1.533Zm0,0" transform="translate(303 2280.223)" fill="#fff"/>
  </g>
</svg>
