<svg id="idea" xmlns="http://www.w3.org/2000/svg" width="32.491" height="36.683" viewBox="0 0 32.491 36.683">
  <path id="Path_7718" data-name="Path 7718" d="M123.765,99.554a8.752,8.752,0,0,1,2.643-4.042,10.618,10.618,0,0,0,3.809-8.162,10.728,10.728,0,1,0-17.645,8.162,8.34,8.34,0,0,1,2.72,4.042Z" transform="translate(-103.244 -71.028)" fill="#ffd15c"/>
  <path id="Path_7719" data-name="Path 7719" d="M202.188,229.437h.7l-3.109-11.582h.233a1.535,1.535,0,0,0,1.088-.466.751.751,0,0,1,1.088,0,1.328,1.328,0,0,0,2.021,0,.706.706,0,0,1,.544-.233.84.84,0,0,1,.544.233,1.411,1.411,0,0,0,1.088.466h.233l-3.031,11.582h.7l3.187-12.126c0-.155,0-.311-.155-.389a.342.342,0,0,0-.389.078.672.672,0,0,1-.466.233,1.034,1.034,0,0,1-.622-.233,1.328,1.328,0,0,0-2.021,0,.751.751,0,0,1-1.088,0,1.253,1.253,0,0,0-1.011-.466h0a1.253,1.253,0,0,0-1.01.466.883.883,0,0,1-.622.233.554.554,0,0,1-.466-.233.342.342,0,0,0-.389-.078.284.284,0,0,0-.155.389Z" transform="translate(-186.953 -201.161)" fill="#fff"/>
  <g id="Group_7887" data-name="Group 7887" transform="translate(12.048 27.821)">
    <path id="Path_7720" data-name="Path 7720" d="M222.933,489.6a2.595,2.595,0,0,0,4.819,0Z" transform="translate(-221.145 -482.371)" fill="#344a5e"/>
    <path id="Path_7721" data-name="Path 7721" d="M205.473,397.706H199.8a1.393,1.393,0,0,1-1.4-1.4V390.4h8.473v5.908A1.393,1.393,0,0,1,205.473,397.706Z" transform="translate(-198.4 -390.4)" fill="#344a5e"/>
  </g>
  <g id="Group_7888" data-name="Group 7888" transform="translate(11.193 29.065)">
    <path id="Path_7722" data-name="Path 7722" d="M195.917,409.177h-8.395a.863.863,0,0,1-.855-.855h0a.863.863,0,0,1,.855-.855h8.395a.863.863,0,0,1,.855.855h0A.863.863,0,0,1,195.917,409.177Z" transform="translate(-186.667 -407.467)" fill="#415a6b"/>
    <path id="Path_7723" data-name="Path 7723" d="M195.917,446.511h-8.395a.863.863,0,0,1-.855-.855h0a.863.863,0,0,1,.855-.855h8.395a.863.863,0,0,1,.855.855h0A.863.863,0,0,1,195.917,446.511Z" transform="translate(-186.667 -442.08)" fill="#415a6b"/>
  </g>
  <g id="Group_7889" data-name="Group 7889" transform="translate(0)">
    <path id="Path_7724" data-name="Path 7724" d="M246.11,0a.779.779,0,0,0-.777.777V3.42a.779.779,0,0,0,.777.777.734.734,0,0,0,.777-.777V.777A.779.779,0,0,0,246.11,0Z" transform="translate(-229.865)" fill="#ffd15c"/>
    <path id="Path_7725" data-name="Path 7725" d="M96.255,62.1a.769.769,0,1,0-1.088,1.088l1.865,1.866a.769.769,0,0,0,1.088-1.088Z" transform="translate(-90.426 -57.474)" fill="#ffd15c"/>
    <path id="Path_7726" data-name="Path 7726" d="M36.486,212.267H33.843a.779.779,0,0,0-.777.777h0a.779.779,0,0,0,.777.777h2.643a.779.779,0,0,0,.777-.777h0A.836.836,0,0,0,36.486,212.267Z" transform="translate(-33.066 -197.166)" fill="#ffd15c"/>
    <path id="Path_7727" data-name="Path 7727" d="M97.031,337.3l-1.865,1.866a.769.769,0,0,0,1.088,1.088l1.865-1.866a.769.769,0,1,0-1.088-1.088Z" transform="translate(-90.424 -313.132)" fill="#ffd15c"/>
    <path id="Path_7728" data-name="Path 7728" d="M371.454,337.3a.77.77,0,0,0-1.088,1.088l1.865,1.865a.769.769,0,0,0,1.088-1.088Z" transform="translate(-345.57 -313.132)" fill="#ffd15c"/>
    <path id="Path_7729" data-name="Path 7729" d="M424.753,212.267H422.11a.779.779,0,0,0-.777.777h0a.779.779,0,0,0,.777.777h2.643a.779.779,0,0,0,.777-.777h0A.779.779,0,0,0,424.753,212.267Z" transform="translate(-393.04 -197.166)" fill="#ffd15c"/>
    <path id="Path_7730" data-name="Path 7730" d="M372.231,62.1l-1.865,1.866a.769.769,0,0,0,1.088,1.088l1.865-1.865a.769.769,0,0,0-1.088-1.088Z" transform="translate(-345.57 -57.474)" fill="#ffd15c"/>
  </g>
</svg>
